<?xml version="1.0" encoding="UTF-8" standalone="no"?>
<svg
   viewBox="0 0 7.0520706 7.052074"
   version="1.1"
   id="svg1"
   sodipodi:docname="icon.svg"
   inkscape:version="1.4.2 (ebf0e940d0, 2025-05-08)"
   width="7.0520706"
   height="7.052074"
   inkscape:export-filename="../watch/resources/launcher_icon~color.png"
   inkscape:export-xdpi="340.32556"
   inkscape:export-ydpi="340.32556"
   xmlns:inkscape="http://www.inkscape.org/namespaces/inkscape"
   xmlns:sodipodi="http://sodipodi.sourceforge.net/DTD/sodipodi-0.dtd"
   xmlns="http://www.w3.org/2000/svg"
   xmlns:svg="http://www.w3.org/2000/svg">
  <defs
     id="defs1" />
  <sodipodi:namedview
     id="namedview1"
     pagecolor="#ffffff"
     bordercolor="#000000"
     borderopacity="0.25"
     inkscape:showpageshadow="2"
     inkscape:pageopacity="0.0"
     inkscape:pagecheckerboard="0"
     inkscape:deskcolor="#d1d1d1"
     inkscape:zoom="16.690666"
     inkscape:cx="6.0512864"
     inkscape:cy="13.420675"
     inkscape:window-width="2552"
     inkscape:window-height="1419"
     inkscape:window-x="0"
     inkscape:window-y="0"
     inkscape:window-maximized="1"
     inkscape:current-layer="svg1"
     showgrid="false"
     inkscape:clip-to-page="false" />
  <path
     d="M 1.093071,0 H 1.007441 C 0.451046,0 0,0.4510459 0,1.0074391 V 6.044635 c 0,0.559129 0.453348,1.007439 1.007439,1.007439 h 0.08563 4.8659324 0.08563 c 0.556393,0 1.007439,-0.451046 1.007439,-1.007439 V 1.0074391 C 7.0520704,0.4483104 6.5987224,0 6.0446314,0 h -0.08563 M 1.007437,1.0074391 H 6.0446334 V 6.044635 H 1.007437 Z"
     id="path1-2"
     style="stroke-width:0.50372" />
  <path
     d="M 1.8076946,4.9932355 V 4.5699077 H 2.2310223 V 3.0882608 c 0,-0.2928016 0.088193,-0.5529717 0.2645799,-0.7805104 C 2.6719887,2.0802117 2.9012912,1.931165 3.1835096,1.8606105 V 1.7124452 c 0,-0.088194 0.030867,-0.1631581 0.092602,-0.2248928 0.061735,-0.061735 0.1366989,-0.092602 0.2248928,-0.092602 0.088194,0 0.163158,0.030867 0.2248928,0.092602 0.061735,0.061735 0.092602,0.1366989 0.092602,0.2248928 v 0.1481653 c 0.2822185,0.070554 0.5115211,0.2196009 0.6879076,0.4471399 0.1763865,0.2275387 0.2645797,0.4877088 0.2645797,0.7805104 V 4.5699071 H 5.1943162 V 4.9932355 Z M 3.5010055,5.628227 c -0.1164152,0 -0.2160736,-0.041451 -0.2989752,-0.1243519 C 3.1191281,5.4209729 3.077677,5.3213143 3.077677,5.2048992 h 0.8466553 c 0,0.1164152 -0.041451,0.2160736 -0.1243518,0.2989752 C 3.7170783,5.5867756 3.61742,5.6282265 3.5010055,5.628227 Z M 2.6543499,4.5699077 H 4.3476608 V 3.0882608 c 0,-0.2328302 -0.082902,-0.432147 -0.248705,-0.5979503 -0.1658034,-0.1658033 -0.3651202,-0.248705 -0.5979503,-0.248705 -0.2328303,0 -0.4321471,0.082902 -0.5979504,0.248705 C 2.7372516,2.6561138 2.6543499,2.8554306 2.6543499,3.0882608 Z"
     id="path1"
     style="stroke-width:0.0052916"
     sodipodi:nodetypes="cccsscssssscssccccssccssccsssssc" />
</svg>
